<svg xmlns="http://www.w3.org/2000/svg" viewBox="0 0 224.2 222.28">
    <defs>
        <style>
            .cls-2{fill:#6e6d6d;}.cls-2,.cls-3,.cls-4,.cls-5{fill-rule:evenodd;}.cls-3{fill:#f9fbfc;}.cls-4{fill:#fc767b;}.cls-5{fill:#fffefe;}
        </style>
    </defs>
    <title>dislike</title>
    <g id="objects">
        <g id="_4" data-name="4">
            <path class="cls-2"
                  d="M214.1,112.47c-.42,9.25-1.55,19.77-5.81,29.79-4.15,9.74-8.49,19.44-14.8,27.92-10.3,13.85-21.52,26.88-37.9,34.09-3,1.31-5.87,2.82-8.79,4.27-6.56,3.24-13.68,4.25-20.81,5.24-1.89.26-3.78.51-5.68.73-11.07,1.25-21.94-.44-32.79-2.27a92.68,92.68,0,0,1-18.6-4.63,86.59,86.59,0,0,1-37.15-27.51c-9.12-11.53-15.48-24.44-21.21-37.75a66.25,66.25,0,0,1-5.44-25.22c-.08-5.27-.43-10.53-.16-15.83.72-14,4.23-27.26,12.2-38.7,7.28-10.47,14-21.54,23.81-30C53.25,21.89,66.94,13.72,83,10.08c5.48-1.24,11-2.35,16.5-3.27,9.83-1.64,19.51-.66,29.1,1.48A163.78,163.78,0,0,1,154,16.21a71.56,71.56,0,0,1,20.53,12.73c6.08,5.32,12.23,10.48,17.23,17a93.49,93.49,0,0,1,14.78,28.19A149.12,149.12,0,0,1,214.1,112.47ZM9.64,112.23c-.44,12.93,3,24.7,8.48,36,1.38,2.82,2.81,5.62,4.13,8.48C27,167,33.81,176,41.47,184.19s17.17,14.05,27.62,18.29a92.79,92.79,0,0,0,19.54,5c11.66,2,23.31,3.51,35.16,1.62,7.32-1.17,14.71-2,21.48-5.32,2.72-1.35,5.4-2.77,8.17-4,15.52-6.83,26.17-19.16,36-32.27,6.06-8.12,10.23-17.39,14.19-26.72A70.75,70.75,0,0,0,209,111.89c-.17-13.52-3.63-26.42-8-39.12a76.21,76.21,0,0,0-8.25-17.28,87.46,87.46,0,0,0-8.45-11.33c-5.35-5.8-11.49-10.73-17.66-15.62a57.51,57.51,0,0,0-7.67-4.88c-7.42-4.17-15.55-6.42-23.59-8.92a83.35,83.35,0,0,0-41.93-2.5C80.33,14.89,67.9,18.92,56.54,26.34c-9.57,6.25-17.88,13.54-24.31,23-2.47,3.63-5.18,7.06-7.91,10.5C15.68,70.71,11.56,83.47,9.78,97A53,53,0,0,0,9.64,112.23Z"/>
            <path class="cls-3"
                  d="M9.64,112.23A53,53,0,0,1,9.78,97c1.78-13.54,5.9-26.3,14.54-37.19,2.73-3.44,5.44-6.87,7.91-10.5,6.42-9.44,14.74-16.73,24.31-23,11.36-7.42,23.8-11.45,36.88-14.09a83.35,83.35,0,0,1,41.93,2.5c8,2.5,16.18,4.75,23.59,8.92a57.51,57.51,0,0,1,7.67,4.88c6.17,4.89,12.31,9.82,17.66,15.62a87.46,87.46,0,0,1,8.45,11.33A76.21,76.21,0,0,1,201,72.78c4.37,12.69,7.84,25.6,8,39.12a70.75,70.75,0,0,1-5.38,28.93c-4,9.33-8.14,18.6-14.19,26.72-9.79,13.11-20.44,25.45-36,32.27-2.77,1.22-5.46,2.64-8.17,4-6.77,3.36-14.15,4.16-21.48,5.32-11.86,1.89-23.51.36-35.16-1.62a92.79,92.79,0,0,1-19.54-5c-10.45-4.23-20-10.06-27.62-18.29S27,167,22.24,156.67c-1.31-2.85-2.74-5.66-4.13-8.48C12.59,136.93,9.2,125.16,9.64,112.23Zm6.17-3.05a69.25,69.25,0,0,0,5,29.21c5.55,13.3,12.12,26,21.61,37.09,8.26,9.66,18.39,16.35,30,21.12,7,2.89,14.51,3.87,21.91,5.19A96.51,96.51,0,0,0,113,203.45a91.3,91.3,0,0,0,21.31-2.94c9.54-2.5,18.18-7.18,26.33-12.58,9.49-6.29,16.56-15.13,23.25-24.15,5.5-7.41,9.34-15.82,13-24.29a67.14,67.14,0,0,0,5.3-28.56c-.25-12.38-3.49-24.16-7.43-35.79a80.8,80.8,0,0,0-12.11-22.4c-3.67-4.93-8.19-8.91-12.7-13-6.49-5.82-13.54-10.8-21.71-14a154.25,154.25,0,0,0-21.54-6.7,77.08,77.08,0,0,0-18.35-2.23A75,75,0,0,0,98,18.14C87.44,19.81,77,22,67.55,27.32c-8.13,4.57-16.29,9.19-22.6,16.26A177.47,177.47,0,0,0,25.36,69.67C18.42,81.12,15.38,93.87,15.8,109.18Z"/>
            <path class="cls-4"
                  d="M15.8,109.18c-.43-15.31,2.62-28.06,9.55-39.51A177.47,177.47,0,0,1,44.95,43.58c6.31-7.07,14.47-11.69,22.6-16.26C77,22,87.44,19.81,98,18.14a75,75,0,0,1,10.36-1.24,77.08,77.08,0,0,1,18.35,2.23,154.25,154.25,0,0,1,21.54,6.7C156.42,29,163.47,34,170,39.78c4.51,4,9,8,12.7,13a80.8,80.8,0,0,1,12.11,22.4c3.93,11.63,7.17,23.42,7.43,35.79a67.14,67.14,0,0,1-5.3,28.56c-3.68,8.47-7.52,16.88-13,24.29-6.69,9-13.76,17.87-23.25,24.15-8.15,5.4-16.79,10.08-26.33,12.58A91.3,91.3,0,0,1,113,203.45a96.51,96.51,0,0,1-18.74-1.66c-7.4-1.32-14.89-2.3-21.91-5.19-11.58-4.76-21.72-11.45-30-21.12-9.49-11.1-16.07-23.79-21.61-37.09A69.25,69.25,0,0,1,15.8,109.18Z"/>
            <path class="cls-5"
                  d="M97.6,128a56.25,56.25,0,0,0-8.38.63,154.19,154.19,0,0,1-18.52.18c-5.78-.14-9.53-7.29-6.64-12.25.82-1.41,1.13-2.26,0-3.76a8,8,0,0,1,1-10.46c1.47-1.43,1.59-2.58,1-4.43-.87-2.87-.81-5.84,1.1-8.37a2.48,2.48,0,0,0,.14-3c-1.19-2.29-.7-4.65.19-6.85a6.25,6.25,0,0,1,6-4.19c4.6-.17,9.21-.31,13.8-.68,10.65-.86,21.32-.73,32-1.19a8.87,8.87,0,0,1,4,.57A5.82,5.82,0,0,1,127,78.54a131.32,131.32,0,0,1,1.86,33.55,31.58,31.58,0,0,1-8.37,19.1c-3.39,3.66-5.74,8-8.89,11.85a6.63,6.63,0,0,0-1.23,4.46c0,1.8.14,3.6.1,5.39a7.13,7.13,0,0,1-6.3,7.17c-5.06.77-10.42-.82-11.64-7.79a29.8,29.8,0,0,1,2.29-18.08C95.7,132.29,96.54,130.37,97.6,128Z"/>
            <path class="cls-5"
                  d="M153.88,109.93c.29,7.07.61,1.14.85,8.21.12,3.64-.84,4.6-4.52,4.6-4.15,0-8.3-.07-12.45-.17-2.88-.06-3.89-1-3.92-3.88-.13-12.47-1.4-24.9-1.6-37.37,0-1.34-.17-2.69-.32-4-.37-3.32,1.22-5.56,4.39-5.24A56.45,56.45,0,0,0,148,71.56c4-.43,5.33.78,5.32,5.16,0,6.73.47,13.47.75,20.2C154,96.93,154,109.93,153.88,109.93Z"/>
        </g>
    </g>
</svg>