<svg xmlns="http://www.w3.org/2000/svg" viewBox="0 0 223.58 225.28">
    <defs>
        <style>
            .cls-2{fill:#6e6d6d;}.cls-2,.cls-3,.cls-4,.cls-5{fill-rule:evenodd;}.cls-3{fill:#f9fbfc;}.cls-4{fill:#619df2;}.cls-5{fill:#fffefe;}
        </style>
    </defs>
    <title>like</title>
    <g id="objects">
        <g id="_4" data-name="4">
            <path class="cls-2"
                  d="M213.48,115.47c-.42,9.25-1.55,19.77-5.81,29.79-4.15,9.74-8.49,19.44-14.8,27.92-10.3,13.85-21.52,26.88-37.9,34.09-3,1.31-5.87,2.82-8.79,4.27-6.56,3.24-13.68,4.25-20.81,5.24-1.89.26-3.78.51-5.68.73-11.07,1.25-21.94-.44-32.79-2.27a92.68,92.68,0,0,1-18.6-4.63,86.59,86.59,0,0,1-37.15-27.51C22,171.55,15.67,158.65,9.95,145.33a66.25,66.25,0,0,1-5.44-25.22c-.08-5.27-.43-10.53-.16-15.83.72-14,4.23-27.26,12.2-38.7,7.28-10.47,14-21.54,23.81-30,12.26-10.66,26-18.84,42.05-22.47,5.48-1.24,11-2.35,16.5-3.27,9.83-1.64,19.51-.66,29.1,1.48a163.78,163.78,0,0,1,25.38,7.93,71.56,71.56,0,0,1,20.53,12.73c6.08,5.32,12.23,10.48,17.23,17a93.49,93.49,0,0,1,14.78,28.19A149.12,149.12,0,0,1,213.48,115.47ZM9,115.23c-.44,12.93,3,24.7,8.48,36,1.38,2.82,2.81,5.62,4.13,8.48C26.37,170,33.19,179,40.84,187.19S58,201.24,68.46,205.48a92.79,92.79,0,0,0,19.54,5c11.66,2,23.31,3.51,35.16,1.62,7.32-1.17,14.71-2,21.48-5.32,2.72-1.35,5.4-2.77,8.17-4,15.52-6.83,26.17-19.16,36-32.27,6.06-8.12,10.23-17.39,14.19-26.72a70.75,70.75,0,0,0,5.38-28.93c-.17-13.52-3.63-26.42-8-39.12a76.21,76.21,0,0,0-8.25-17.28,87.46,87.46,0,0,0-8.45-11.33c-5.35-5.8-11.49-10.73-17.66-15.62a57.51,57.51,0,0,0-7.67-4.88c-7.42-4.17-15.55-6.42-23.59-8.92a83.35,83.35,0,0,0-41.93-2.5c-13.08,2.65-25.52,6.67-36.88,14.09C46.35,35.59,38,42.88,31.6,52.32c-2.47,3.63-5.18,7.06-7.91,10.5C15.06,73.71,10.93,86.47,9.16,100A53,53,0,0,0,9,115.23Z"/>
            <path class="cls-3"
                  d="M9,115.23A53,53,0,0,1,9.16,100c1.78-13.54,5.9-26.3,14.54-37.19,2.73-3.44,5.44-6.87,7.91-10.5,6.42-9.44,14.74-16.73,24.31-23,11.36-7.42,23.8-11.45,36.88-14.09a83.35,83.35,0,0,1,41.93,2.5c8,2.5,16.18,4.75,23.59,8.92A57.51,57.51,0,0,1,166,31.55c6.17,4.89,12.31,9.82,17.66,15.62a87.46,87.46,0,0,1,8.45,11.33,76.21,76.21,0,0,1,8.25,17.28c4.37,12.69,7.84,25.6,8,39.12A70.75,70.75,0,0,1,203,143.83c-4,9.33-8.14,18.6-14.19,26.72-9.79,13.11-20.44,25.45-36,32.27-2.77,1.22-5.46,2.64-8.17,4-6.77,3.36-14.15,4.16-21.48,5.32-11.86,1.89-23.51.36-35.16-1.62a92.79,92.79,0,0,1-19.54-5c-10.45-4.23-20-10.06-27.62-18.29S26.37,170,21.62,159.67c-1.31-2.85-2.74-5.66-4.13-8.48C12,139.93,8.57,128.16,9,115.23Zm6.17-3.05a69.25,69.25,0,0,0,5,29.21c5.55,13.3,12.13,26,21.61,37.09,8.26,9.66,18.39,16.35,30,21.12,7,2.89,14.51,3.87,21.91,5.19a96.51,96.51,0,0,0,18.74,1.66,91.3,91.3,0,0,0,21.31-2.94c9.54-2.5,18.18-7.18,26.33-12.58,9.49-6.29,16.56-15.13,23.25-24.15,5.5-7.41,9.34-15.82,13-24.29a67.14,67.14,0,0,0,5.3-28.56c-.25-12.38-3.49-24.16-7.43-35.79A80.8,80.8,0,0,0,182,55.73c-3.67-4.93-8.19-8.91-12.7-13-6.49-5.82-13.54-10.8-21.71-14a154.25,154.25,0,0,0-21.54-6.7,77.08,77.08,0,0,0-18.35-2.23,75,75,0,0,0-10.36,1.24c-10.57,1.67-21,3.87-30.46,9.18-8.13,4.57-16.29,9.19-22.6,16.26A177.47,177.47,0,0,0,24.73,72.67C17.8,84.12,14.75,96.87,15.18,112.18Z"/>
            <path class="cls-4"
                  d="M15.18,112.18c-.43-15.31,2.62-28.06,9.55-39.51A177.47,177.47,0,0,1,44.32,46.58c6.31-7.07,14.47-11.69,22.6-16.26,9.46-5.31,19.89-7.51,30.46-9.18a75,75,0,0,1,10.36-1.24,77.08,77.08,0,0,1,18.35,2.23,154.25,154.25,0,0,1,21.54,6.7c8.17,3.15,15.22,8.14,21.71,14,4.51,4,9,8,12.7,13a80.8,80.8,0,0,1,12.11,22.4c3.93,11.63,7.17,23.42,7.43,35.79a67.14,67.14,0,0,1-5.3,28.56c-3.68,8.47-7.52,16.88-13,24.29-6.69,9-13.76,17.87-23.25,24.15-8.15,5.4-16.79,10.08-26.33,12.58a91.3,91.3,0,0,1-21.31,2.94,96.51,96.51,0,0,1-18.74-1.66c-7.4-1.32-14.89-2.3-21.91-5.19-11.58-4.76-21.72-11.45-30-21.12-9.49-11.1-16.07-23.79-21.61-37.09A69.25,69.25,0,0,1,15.18,112.18Zm105-21.63c1.16-2.31,2.08-4.2,3-6.07a29.8,29.8,0,0,0,3-18c-.93-7-6.22-8.82-11.31-8.26a7.13,7.13,0,0,0-6.59,6.91c-.12,1.79-.07,3.59-.12,5.39A6.63,6.63,0,0,1,106.81,75c-3.29,3.68-5.83,8-9.36,11.48a31.58,31.58,0,0,0-9.14,18.74,131.32,131.32,0,0,0,.5,33.59,5.82,5.82,0,0,0,3.62,4.54,8.87,8.87,0,0,0,3.94.73c10.67,0,21.33.53,32,.11,4.6-.18,9.21-.13,13.82-.12a6.25,6.25,0,0,0,6.12-3.94c1-2.17,1.56-4.5.46-6.84a2.48,2.48,0,0,1,.27-3c2-2.46,2.19-5.42,1.44-8.32-.48-1.87-.31-3,1.22-4.38a8,8,0,0,0,1.38-10.41c-1.08-1.54-.74-2.38.14-3.75,3.09-4.84-.37-12.14-6.14-12.51a154.19,154.19,0,0,0-18.52-.57A56.25,56.25,0,0,1,120.18,90.55ZM62.47,124.3h-.22c0,6.74.21,13.49-.08,20.22-.19,4.38,1.1,5.64,5.11,5.38a56.45,56.45,0,0,1,11.74,0c3.15.44,4.83-1.73,4.6-5.06-.09-1.34-.19-2.69-.16-4,.31-12.47-.45-24.93-.07-37.4.09-2.92-.88-3.85-3.76-4-4.14-.26-8.29-.5-12.44-.67-3.67-.15-4.68.77-4.7,4.41C62.44,110.14,62.47,117.22,62.47,124.3Z"/>
            <path class="cls-5"
                  d="M120.18,90.55a56.25,56.25,0,0,0,8.39-.28,154.19,154.19,0,0,1,18.52.57c5.76.37,9.23,7.67,6.14,12.51-.88,1.38-1.22,2.22-.14,3.75a8,8,0,0,1-1.38,10.41c-1.52,1.37-1.7,2.51-1.22,4.38.75,2.9.57,5.86-1.44,8.32a2.48,2.48,0,0,0-.27,3c1.1,2.34.51,4.67-.46,6.84a6.25,6.25,0,0,1-6.12,3.94c-4.61,0-9.22-.07-13.82.12-10.67.42-21.33-.13-32-.11a8.87,8.87,0,0,1-3.94-.73,5.82,5.82,0,0,1-3.62-4.54,131.32,131.32,0,0,1-.5-33.59,31.58,31.58,0,0,1,9.14-18.74c3.53-3.52,6.07-7.8,9.36-11.48a6.63,6.63,0,0,0,1.41-4.41c.06-1.8,0-3.6.12-5.39a7.13,7.13,0,0,1,6.59-6.91c5.09-.56,10.38,1.25,11.31,8.26a29.8,29.8,0,0,1-3,18C122.25,86.34,121.33,88.23,120.18,90.55Z"/>
            <path class="cls-5"
                  d="M62.47,124.3c0-7.08,0-14.15,0-21.23,0-3.64,1-4.57,4.7-4.41,4.15.17,8.29.41,12.44.67,2.88.18,3.84,1.11,3.76,4-.38,12.47.38,24.93.07,37.4,0,1.34.06,2.69.16,4,.23,3.33-1.44,5.5-4.6,5.06a56.45,56.45,0,0,0-11.74,0c-4,.27-5.3-1-5.11-5.38.29-6.73.08-13.48.08-20.22Z"/>
        </g>
    </g>
</svg>