<?xml version="1.0" encoding="iso-8859-1"?>
<!-- Generator: Adobe Illustrator 21.0.0, SVG Export Plug-In . SVG Version: 6.00 Build 0)  -->
<svg xmlns="http://www.w3.org/2000/svg" xmlns:xlink="http://www.w3.org/1999/xlink" version="1.1" id="Capa_1" x="0px" y="0px" viewBox="0 0 512 512" style="enable-background:new 0 0 512 512;" xml:space="preserve" width="512" height="512">
<g>
	<path fill="#FFFFFF" style="fill-rule:evenodd;clip-rule:evenodd;" d="M462.641,428.079c-5.11-2.088-10.95,0.364-13.038,5.478   C435.104,469.06,400.961,492,362.617,492c-2.091,0-4.188-0.082-6.275-0.211c-1.194-0.073-2.385-0.189-3.575-0.305   c-46.025-4.82-82.26-43.022-84-89.88c-0.044-1.171-0.073-2.347-0.073-3.528c0-51.789,42.134-93.923,93.924-93.923   c38.343,0,72.487,22.941,86.985,58.442c2.087,5.114,7.925,7.561,13.039,5.478c5.113-2.088,7.565-7.926,5.477-13.038   c-16.312-39.944-53.134-66.76-95.501-70.433V66.112c0-5.522-4.477-10-10-10h-46.52V38.057c0-5.522-4.477-10-10-10h-44.079V10   c0-5.523-4.477-10-10-10h-95.96c-5.523,0-10,4.477-10,10v18.057h-44.08c-5.523,0-10,4.478-10,10v18.056H45.46   c-5.523,0-10,4.478-10,10V502c0,5.522,4.477,10,10,10c0,0,317.133,0,317.157,0c46.506,0,87.918-27.823,105.501-70.883   C470.206,436.005,467.754,430.167,462.641,428.079z M111.979,48.057h44.08c5.523,0,10-4.477,10-10V20h75.96v18.057   c0,5.523,4.477,10,10,10h44.079v18.056v18.056H111.979V66.112V48.057z M298.211,492H55.46V76.112h36.519v18.056   c0,5.522,4.477,10,10,10h204.119c5.523,0,10-4.478,10-10V76.112h36.52v208.476c-3.844,0.336-7.676,0.863-11.465,1.592   c-1.1,0.212-2.196,0.44-3.289,0.688c-4.404,0.994-8.77,2.205-13.023,3.724c-9.275,3.312-18.129,7.745-26.271,13.294   c-2.318,1.58-4.578,3.25-6.772,4.999c-7.958,6.346-15.167,13.823-21.185,22.033c-8.442,11.517-14.842,24.981-18.425,38.779   c-3.636,14.002-4.953,28.646-2.7,42.983c2.13,13.553,5.913,26.61,12.469,38.711c6.761,12.479,15.697,23.755,26.447,33.033   C291.533,487.125,294.804,489.658,298.211,492z"/>
	<path fill="#FFFFFF" style="fill-rule:evenodd;clip-rule:evenodd;" d="M408.593,355.641l-63.658,63.658l-28.294-28.294   c-3.905-3.904-10.237-3.904-14.142,0c-3.905,3.905-3.905,10.237,0.001,14.143l35.365,35.364c1.953,1.952,4.512,2.929,7.071,2.929   c2.559,0,5.119-0.977,7.071-2.929l70.729-70.728c3.905-3.905,3.905-10.237,0-14.143   C418.83,351.736,412.498,351.736,408.593,355.641z"/>
	<path fill="#FFFFFF" style="fill-rule:evenodd;clip-rule:evenodd;" d="M153.136,186.607h152.962c5.523,0,10-4.478,10-10c0-5.522-4.477-10-10-10   H153.136c-5.523,0-10,4.478-10,10C143.136,182.13,147.613,186.607,153.136,186.607z"/>
	<path fill="#FFFFFF" style="fill-rule:evenodd;clip-rule:evenodd;" d="M112.732,166.607h-10.754c-5.523,0-10,4.478-10,10c0,5.522,4.477,10,10,10   h10.754c5.523,0,10-4.478,10-10C122.732,171.085,118.255,166.607,112.732,166.607z"/>
	<path fill="#FFFFFF" style="fill-rule:evenodd;clip-rule:evenodd;" d="M153.136,249.501h152.962c5.523,0,10-4.478,10-10c0-5.523-4.477-10-10-10   H153.136c-5.523,0-10,4.477-10,10C143.136,245.023,147.613,249.501,153.136,249.501z"/>
	<path fill="#FFFFFF" style="fill-rule:evenodd;clip-rule:evenodd;" d="M112.732,229.501h-10.754c-5.523,0-10,4.477-10,10c0,5.522,4.477,10,10,10   h10.754c5.523,0,10-4.478,10-10C122.732,233.979,118.255,229.501,112.732,229.501z"/>
	<path fill="#FFFFFF" style="fill-rule:evenodd;clip-rule:evenodd;" d="M257.884,302.395c0-5.522-4.477-10-10-10h-94.748c-5.523,0-10,4.478-10,10   c0,5.522,4.477,10,10,10h94.748C253.407,312.395,257.884,307.917,257.884,302.395z"/>
	<path fill="#FFFFFF" style="fill-rule:evenodd;clip-rule:evenodd;" d="M112.732,292.395h-10.754c-5.523,0-10,4.478-10,10c0,5.522,4.477,10,10,10   h10.754c5.523,0,10-4.478,10-10C122.732,296.872,118.255,292.395,112.732,292.395z"/>
	<path fill="#FFFFFF" style="fill-rule:evenodd;clip-rule:evenodd;" d="M218.608,355.287h-65.473c-5.523,0-10,4.477-10,10c0,5.522,4.477,10,10,10   h65.473c5.523,0,10-4.478,10-10C228.608,359.765,224.131,355.287,218.608,355.287z"/>
	<path fill="#FFFFFF" style="fill-rule:evenodd;clip-rule:evenodd;" d="M112.732,355.287h-10.754c-5.523,0-10,4.477-10,10c0,5.522,4.477,10,10,10   h10.754c5.523,0,10-4.478,10-10C122.732,359.765,118.255,355.287,112.732,355.287z"/>
	<path fill="#FFFFFF" style="fill-rule:evenodd;clip-rule:evenodd;" d="M466.54,388.076c-5.508,0-10,4.492-10,10s4.492,10,10,10   c5.508,0,10-4.492,10-10S472.048,388.076,466.54,388.076z"/>
</g>















</svg>
